# xmcd
#
# Track frame offsets:
#	150
#	15503
#	30645
#	50501
#	64634
#	83304
#	104815
#	120056
#	135177
#	155098
#	169256
#	188023
#
# Disc length: 2793
#
# Revision: 1
# Processed by: cddbd v1.5.2PL0 Copyright (c) Steve Scherf et al.
# Submitted via: kJams Lite (development) 1.0patch49.47
#
DISCID=890ae70c
DTITLE=Various Artist - CB20197
DYEAR=2000
DGENRE=Country
TTITLE0=Lynn, Loretta - Country In My Genes (Guide Vocals)
TTITLE1=Duets⁄Brooks, Garth and Steve Wariner - Katie Wants a Fast One (Guide Vocals)
TTITLE2=Angelle, Lisa - A Woman Gets Lonely (Guide Vocals)
TTITLE3=Travis, Randy - I'll Be Right Here Loving You (Guide Vocals)
TTITLE4=O'Neal, Jamie - There Is No Arizona (Guide Vocals)
TTITLE5=Cochran, Anita - You With Me (Guide Vocals)
TTITLE6=Lynn, Loretta - Country In My Genes
TTITLE7=Duets⁄Brooks, Garth and Steve Wariner - Katie Wants a Fast One
TTITLE8=Angelle, Lisa - A Woman Gets Lonely
TTITLE9=Travis, Randy - I'll Be Right Here Loving You
TTITLE10=O'Neal, Jamie - There Is No Arizona
TTITLE11=Cochran, Anita - You With Me
EXTD=
EXTT0=
EXTT1=
EXTT2=
EXTT3=
EXTT4=
EXTT5=
EXTT6=
EXTT7=
EXTT8=
EXTT9=
EXTT10=
EXTT11=
PLAYORDER=
